<svg xmlns="http://www.w3.org/2000/svg" width="180" height="180" fill="none" viewBox="0 0 180 180"><rect width="180" height="180" fill="#fff"/><ellipse cx="86.286" cy="153.356" fill="#fff" rx="52" ry="2.5"/><rect width="65.449" height="63.593" x="47.142" y="87.55" fill="#fff" stroke="#6B7280" stroke-width="6" rx="20.571"/><rect width="35.7" height="37.812" x="62.442" y="41.144" fill="#fff" stroke="#6B7280" stroke-width="6" rx="17.85"/><rect width="42.499" height="42.969" x="89.643" y="108.175" fill="#fff" stroke="#6B7280" stroke-width="6" rx="20.571"/><path stroke="#6B7280" stroke-linecap="round" stroke-linejoin="round" stroke-width="6" d="M110.467 132.237V119.346"/><path stroke="#6B7280" stroke-linecap="round" stroke-linejoin="round" stroke-width="6" d="M110.467 140.114L110.467 139.111"/><path fill="#E5E7EB" fill-rule="evenodd" d="M33.5307 46.1018C33.5307 46.5752 33.9144 46.959 34.3878 46.959C34.8612 46.959 35.2449 46.5752 35.2449 46.1018V40.7144L40.6326 40.7144C41.106 40.7144 41.4897 40.3307 41.4897 39.8573C41.4897 39.3839 41.106 39.0001 40.6326 39.0001L35.2449 39.0001V33.612C35.2449 33.1386 34.8612 32.7549 34.3878 32.7549C33.9144 32.7549 33.5307 33.1386 33.5307 33.612V39.0001L28.1428 39.0001C27.6694 39.0001 27.2856 39.3839 27.2856 39.8573C27.2856 40.3307 27.6694 40.7144 28.1428 40.7144L33.5307 40.7144V46.1018Z" clip-rule="evenodd"/><path fill="#E5E7EB" fill-rule="evenodd" d="M147.085 62.1692C147.085 62.6426 147.468 63.0263 147.942 63.0263C148.415 63.0263 148.799 62.6426 148.799 62.1692V58.9416H152.027C152.5 58.9416 152.884 58.5579 152.884 58.0845C152.884 57.6111 152.5 57.2273 152.027 57.2273L148.799 57.2273V53.9997C148.799 53.5263 148.415 53.1426 147.942 53.1426C147.468 53.1426 147.085 53.5263 147.085 53.9997V57.2273L143.857 57.2273C143.384 57.2273 143 57.6111 143 58.0845C143 58.5579 143.384 58.9416 143.857 58.9416H147.085V62.1692Z" clip-rule="evenodd"/><circle cx="26" cy="81" r="3" stroke="#E5E7EB" stroke-width="2"/><circle cx="132.714" cy="85.714" r="1.714" stroke="#E5E7EB" stroke-width="2"/><circle cx="24.714" cy="130.286" r="1.714" stroke="#E5E7EB" stroke-width="2"/><circle cx="153.714" cy="128.143" r="3" stroke="#E5E7EB" stroke-width="2"/><circle cx="107.429" cy="27.856" r="3" stroke="#E5E7EB" stroke-width="2"/></svg>