<svg xmlns="http://www.w3.org/2000/svg" width="180" height="180" fill="none" viewBox="0 0 180 180"><path fill="#fff" stroke="#6B7280" stroke-linecap="round" stroke-linejoin="round" stroke-width="6" d="M114 65H130.071C140.626 65 149.793 72.2644 152.206 82.5403L156.636 101.409C158.865 110.906 151.659 120 141.904 120H132.6H114V65Z"/><path fill="#fff" stroke="#6B7280" stroke-linecap="round" stroke-linejoin="round" stroke-width="6" d="M32.0526 42H97.9474C107.365 42 115 49.6347 115 59.0526V100.947C115 110.365 107.365 118 97.9474 118H56.5094H28.9577C21.2491 118 15 111.751 15 104.042V59.0526C15 49.6347 22.6347 42 32.0526 42Z"/><path stroke="#6B7280" stroke-linecap="round" stroke-width="6" d="M143 91H141C133.82 91 128 85.1797 128 78V78"/><circle cx="43" cy="120" r="19" fill="#E5E7EB" stroke="#6B7280" stroke-linecap="round" stroke-linejoin="round" stroke-width="6"/><circle cx="114" cy="124" r="15" fill="#E5E7EB" stroke="#6B7280" stroke-linecap="round" stroke-linejoin="round" stroke-width="6"/></svg>